<svg width="43" height="43" viewBox="0 0 43 43" fill="none" xmlns="http://www.w3.org/2000/svg">
<path d="M21.4895 36.7293C23.9749 36.7293 26.0911 35.8594 27.838 34.1195C29.5849 32.3797 30.4583 30.267 30.4583 27.7815C30.4583 25.296 29.5884 23.1798 27.8485 21.433C26.1087 19.6861 23.996 18.8127 21.5105 18.8127C19.025 18.8127 16.9088 19.6826 15.162 21.4224C13.4151 23.1623 12.5416 25.275 12.5416 27.7605C12.5416 30.246 13.4116 32.3621 15.1514 34.109C16.8913 35.8559 19.0039 36.7293 21.4895 36.7293ZM15.4979 17.7825C16.334 17.2748 17.2298 16.8792 18.1854 16.5955C19.141 16.3118 20.1413 16.155 21.1864 16.1252L16.2594 6.271H9.71977L15.4979 17.7825ZM27.5021 17.7825L33.2802 6.271H26.7406L23.0229 13.7512L24.3666 16.4387C24.934 16.588 25.479 16.7746 26.0015 16.9986C26.5241 17.2226 27.0243 17.4838 27.5021 17.7825ZM12.2281 34.8033C11.4816 33.8179 10.8993 32.7354 10.4812 31.5559C10.0632 30.3764 9.85415 29.1147 9.85415 27.771C9.85415 26.4272 10.0632 25.1656 10.4812 23.9861C10.8993 22.8066 11.4816 21.7241 12.2281 20.7387C10.526 21.0373 9.10762 21.8361 7.9729 23.1351C6.83817 24.434 6.27081 25.9793 6.27081 27.771C6.27081 29.5627 6.83817 31.108 7.9729 32.4069C9.10762 33.7059 10.526 34.5047 12.2281 34.8033ZM30.7719 34.8033C32.4739 34.5047 33.8923 33.7059 35.0271 32.4069C36.1618 31.108 36.7291 29.5627 36.7291 27.771C36.7291 25.9793 36.1618 24.434 35.0271 23.1351C33.8923 21.8361 32.4739 21.0373 30.7719 20.7387C31.5184 21.7241 32.1007 22.8066 32.5187 23.9861C32.9368 25.1656 33.1458 26.4272 33.1458 27.771C33.1458 29.1147 32.9368 30.3764 32.5187 31.5559C32.1007 32.7354 31.5184 33.8179 30.7719 34.8033ZM21.5 39.4168C20.3055 39.4168 19.1633 39.2451 18.0734 38.9017C16.9835 38.5583 15.9757 38.088 15.05 37.4908C14.7812 37.5505 14.5125 37.5878 14.2437 37.6028C13.975 37.6177 13.6913 37.6252 13.3927 37.6252C10.6753 37.6252 8.36109 36.6696 6.44998 34.7585C4.53887 32.8474 3.58331 30.5331 3.58331 27.8158C3.58331 25.2179 4.44929 22.9932 6.18123 21.1418C7.91317 19.2904 10.0482 18.2602 12.5864 18.0512L5.37498 3.5835H17.9166L21.5 10.7502L25.0833 3.5835H37.625L30.4583 17.9616C32.9965 18.2005 35.1241 19.2456 36.8411 21.097C38.5581 22.9484 39.4166 25.1731 39.4166 27.771C39.4166 30.5182 38.4611 32.8474 36.55 34.7585C34.6389 36.6696 32.3097 37.6252 29.5625 37.6252C29.2937 37.6252 29.0175 37.6177 28.7338 37.6028C28.4502 37.5878 28.1739 37.5505 27.9052 37.4908C26.9795 38.088 25.9791 38.5583 24.9041 38.9017C23.8291 39.2451 22.6944 39.4168 21.5 39.4168ZM18.1854 32.6981L19.4396 28.622L16.125 26.2481H20.201L21.5 21.9481L22.7989 26.2481H26.875L23.5604 28.622L24.8146 32.6981L21.5 30.1897L18.1854 32.6981Z" fill="#333333"/>
</svg>
