<svg width="48" height="48" viewBox="0 0 48 48" fill="none" xmlns="http://www.w3.org/2000/svg">
<path d="M1.9 40.0002V35.3002C1.9 34.1335 2.2 33.0752 2.8 32.1252C3.4 31.1752 4.23334 30.4669 5.3 30.0002C7.73334 28.9335 9.925 28.1669 11.875 27.7002C13.825 27.2335 15.8333 27.0002 17.9 27.0002C19.9667 27.0002 21.9667 27.2335 23.9 27.7002C25.8333 28.1669 28.0167 28.9335 30.45 30.0002C31.5167 30.4669 32.3583 31.1752 32.975 32.1252C33.5917 33.0752 33.9 34.1335 33.9 35.3002V40.0002H1.9ZM36.9 40.0002V35.3002C36.9 33.2002 36.3667 31.4752 35.3 30.1252C34.2333 28.7752 32.8333 27.6835 31.1 26.8502C33.4 27.1169 35.5667 27.5085 37.6 28.0252C39.6333 28.5419 41.2833 29.1335 42.55 29.8002C43.65 30.4335 44.5167 31.2169 45.15 32.1502C45.7833 33.0835 46.1 34.1335 46.1 35.3002V40.0002H36.9ZM17.9 23.9502C15.7 23.9502 13.9 23.2502 12.5 21.8502C11.1 20.4502 10.4 18.6502 10.4 16.4502C10.4 14.2502 11.1 12.4502 12.5 11.0502C13.9 9.6502 15.7 8.9502 17.9 8.9502C20.1 8.9502 21.9 9.6502 23.3 11.0502C24.7 12.4502 25.4 14.2502 25.4 16.4502C25.4 18.6502 24.7 20.4502 23.3 21.8502C21.9 23.2502 20.1 23.9502 17.9 23.9502ZM35.9 16.4502C35.9 18.6502 35.2 20.4502 33.8 21.8502C32.4 23.2502 30.6 23.9502 28.4 23.9502C28.0333 23.9502 27.625 23.9252 27.175 23.8752C26.725 23.8252 26.3167 23.7335 25.95 23.6002C26.75 22.7669 27.3583 21.7419 27.775 20.5252C28.1917 19.3085 28.4 17.9502 28.4 16.4502C28.4 14.9502 28.1917 13.6252 27.775 12.4752C27.3583 11.3252 26.75 10.2669 25.95 9.3002C26.3167 9.2002 26.725 9.11686 27.175 9.0502C27.625 8.98353 28.0333 8.9502 28.4 8.9502C30.6 8.9502 32.4 9.6502 33.8 11.0502C35.2 12.4502 35.9 14.2502 35.9 16.4502ZM4.9 37.0002H30.9V35.3002C30.9 34.7669 30.7417 34.2502 30.425 33.7502C30.1083 33.2502 29.7167 32.9002 29.25 32.7002C26.85 31.6335 24.8333 30.9169 23.2 30.5502C21.5667 30.1835 19.8 30.0002 17.9 30.0002C16 30.0002 14.225 30.1835 12.575 30.5502C10.925 30.9169 8.9 31.6335 6.5 32.7002C6.03333 32.9002 5.65 33.2502 5.35 33.7502C5.05 34.2502 4.9 34.7669 4.9 35.3002V37.0002ZM17.9 20.9502C19.2 20.9502 20.275 20.5252 21.125 19.6752C21.975 18.8252 22.4 17.7502 22.4 16.4502C22.4 15.1502 21.975 14.0752 21.125 13.2252C20.275 12.3752 19.2 11.9502 17.9 11.9502C16.6 11.9502 15.525 12.3752 14.675 13.2252C13.825 14.0752 13.4 15.1502 13.4 16.4502C13.4 17.7502 13.825 18.8252 14.675 19.6752C15.525 20.5252 16.6 20.9502 17.9 20.9502Z" fill="#333333"/>
</svg>
