<svg width="44" height="44" viewBox="0 0 44 44" fill="none" xmlns="http://www.w3.org/2000/svg">
<path d="M19.7542 37.8583H8.25C7.51667 37.8583 6.875 37.5833 6.325 37.0333C5.775 36.4833 5.5 35.8416 5.5 35.1083V8.43327C5.5 7.69993 5.73681 7.05827 6.21042 6.50827C6.68403 5.95827 7.08889 5.68327 7.425 5.68327H16.6833C16.8972 4.61382 17.4243 3.73535 18.2646 3.04785C19.1049 2.36035 20.075 2.0166 21.175 2.0166C22.275 2.0166 23.2451 2.36035 24.0854 3.04785C24.9257 3.73535 25.4528 4.61382 25.6667 5.68327H34.925C35.6583 5.68327 36.3 5.95827 36.85 6.50827C37.4 7.05827 37.675 7.69993 37.675 8.43327V17.7374H34.925V8.43327H30.0667V14.3916H13.1083V8.43327H8.25V35.1083H19.7542V37.8583ZM28.4167 36.7124L21.0833 29.3791L23.0542 27.4083L28.4167 32.7708L39.3708 21.8166L41.3417 23.7874L28.4167 36.7124ZM22 8.24994C22.5194 8.24994 22.9549 8.07424 23.3062 7.72285C23.6576 7.37146 23.8333 6.93605 23.8333 6.4166C23.8333 5.89716 23.6576 5.46174 23.3062 5.11035C22.9549 4.75896 22.5194 4.58327 22 4.58327C21.4806 4.58327 21.0451 4.75896 20.6938 5.11035C20.3424 5.46174 20.1667 5.89716 20.1667 6.4166C20.1667 6.93605 20.3424 7.37146 20.6938 7.72285C21.0451 8.07424 21.4806 8.24994 22 8.24994Z" fill="#333333"/>
</svg>
